<?xml version="1.0" encoding="utf-8"?>
<!-- Generator: Adobe Illustrator 17.0.0, SVG Export Plug-In . SVG Version: 6.00 Build 0)  -->
<!DOCTYPE svg PUBLIC "-//W3C//DTD SVG 1.1//EN" "http://www.w3.org/Graphics/SVG/1.1/DTD/svg11.dtd">
<svg version="1.1" id="Layer_1" xmlns="http://www.w3.org/2000/svg" xmlns:xlink="http://www.w3.org/1999/xlink" x="0px" y="0px"
	 width="1200px" height="1200px" viewBox="0 0 1200 1200" enable-background="new 0 0 1200 1200" xml:space="preserve">
<g>
	<g>
		<polygon fill="#CA2028" points="602.315,439.555 365.876,304.528 431.186,778.567 600.313,910.385 		"/>
		<polygon fill="#FAB40E" points="598.461,437.422 841.141,302.395 764.782,797.839 597.834,915.362 		"/>
		<polygon fill="#F18425" points="365.876,304.949 597.61,437.852 841.188,302.32 604.037,167.733 		"/>
	</g>
	<g>
		<polygon fill="#45751C" points="948.222,687.763 718.688,554.626 707.33,868.145 881.229,977.856 		"/>
		<polygon fill="#BED000" points="945.931,686.613 1147.933,574.141 1036.238,858.069 881.229,977.856 		"/>
		<polygon fill="#76B82A" points="715.628,555.01 947.362,687.913 1150,574.61 906.255,452.737 		"/>
	</g>
	<polygon fill="#007EB3" points="274.006,729.919 50,601.984 241.487,907.372 401.726,1032.258 	"/>
	<polygon fill="#00ADEA" points="270.367,727.898 500.276,599.963 507.779,959.211 399.378,1032.267 	"/>
	<polygon fill="#71CBF4" points="50,602.386 269.562,728.31 500.323,599.897 275.653,472.383 	"/>
</g>
</svg>
